<svg xmlns="http://www.w3.org/2000/svg" xmlns:xlink="http://www.w3.org/1999/xlink" width="50" zoomAndPan="magnify" viewBox="0 0 37.5 37.499999" height="50" preserveAspectRatio="xMidYMid meet" version="1.0"><defs><clipPath id="f16f2671aa"><path d="M 0 0 L 37.007812 0 L 37.007812 37.007812 L 0 37.007812 Z M 0 0 " clip-rule="nonzero"/></clipPath><clipPath id="e32ec4207c"><path d="M 6.582031 9.132812 L 30.445312 9.132812 L 30.445312 27.945312 L 6.582031 27.945312 Z M 6.582031 9.132812 " clip-rule="nonzero"/></clipPath><clipPath id="903ce60616"><path d="M 18.503906 16.800781 C 19.570312 16.800781 20.261719 17.167969 20.742188 17.710938 C 21.226562 18.253906 21.488281 19.011719 21.488281 19.78125 C 21.488281 20.550781 21.226562 21.308594 20.742188 21.851562 C 20.261719 22.394531 19.570312 22.761719 18.503906 22.761719 C 17.441406 22.761719 16.75 22.394531 16.269531 21.851562 C 15.785156 21.308594 15.523438 20.550781 15.523438 19.78125 C 15.523438 19.011719 15.785156 18.253906 16.269531 17.710938 C 16.75 17.167969 17.441406 16.800781 18.503906 16.800781 Z M 18.503906 15.097656 C 17.015625 15.097656 15.789062 15.6875 14.992188 16.582031 C 14.199219 17.476562 13.820312 18.632812 13.820312 19.78125 C 13.820312 20.929688 14.199219 22.089844 14.992188 22.980469 C 15.789062 23.875 17.015625 24.464844 18.503906 24.464844 C 19.996094 24.464844 21.222656 23.875 22.019531 22.980469 C 22.8125 22.085938 23.191406 20.929688 23.191406 19.78125 C 23.191406 18.632812 22.8125 17.472656 22.019531 16.578125 C 21.222656 15.683594 19.996094 15.09375 18.503906 15.09375 Z M 20.261719 10.835938 C 20.527344 10.835938 20.765625 10.976562 20.902344 11.199219 C 20.902344 11.199219 22.480469 13.832031 22.480469 13.832031 C 22.636719 14.089844 22.914062 14.246094 23.210938 14.246094 L 27.449219 14.246094 C 28.164062 14.246094 28.726562 14.808594 28.726562 15.523438 C 28.726562 15.523438 28.726562 24.894531 28.726562 24.894531 C 28.726562 25.609375 28.164062 26.171875 27.449219 26.171875 L 9.5625 26.171875 C 8.847656 26.171875 8.285156 25.609375 8.285156 24.894531 C 8.285156 24.894531 8.285156 15.523438 8.285156 15.523438 C 8.285156 14.808594 8.847656 14.246094 9.5625 14.246094 L 13.800781 14.246094 C 14.097656 14.246094 14.375 14.089844 14.53125 13.832031 C 14.53125 13.832031 16.109375 11.199219 16.109375 11.199219 C 16.242188 10.976562 16.484375 10.835938 16.746094 10.835938 Z M 16.746094 9.132812 C 15.886719 9.132812 15.089844 9.585938 14.648438 10.320312 L 14.648438 10.324219 C 14.648438 10.324219 13.316406 12.539062 13.316406 12.539062 L 9.5625 12.539062 C 7.925781 12.539062 6.582031 13.886719 6.582031 15.523438 L 6.582031 24.890625 C 6.582031 26.527344 7.925781 27.875 9.5625 27.875 L 27.449219 27.875 C 29.027344 27.875 30.332031 26.625 30.425781 25.070312 L 30.425781 15.339844 C 30.332031 13.789062 29.027344 12.539062 27.449219 12.539062 L 23.695312 12.539062 C 23.695312 12.539062 22.363281 10.320312 22.363281 10.320312 C 21.921875 9.585938 21.121094 9.132812 20.261719 9.132812 Z M 16.746094 9.132812 " clip-rule="nonzero"/></clipPath></defs><g clip-path="url(#f16f2671aa)"><path fill="#ffffff" d="M 0 0 L 37.007812 0 L 37.007812 37.007812 L 0 37.007812 Z M 0 0 " fill-opacity="1" fill-rule="nonzero"/><path fill="#000000" d="M 0 0 L 37.007812 0 L 37.007812 37.007812 L 0 37.007812 Z M 0 0 " fill-opacity="1" fill-rule="nonzero"/></g><g clip-path="url(#e32ec4207c)"><g clip-path="url(#903ce60616)"><path fill="#ffd200" d="M 6.582031 9.132812 L 30.445312 9.132812 L 30.445312 27.875 L 6.582031 27.875 Z M 6.582031 9.132812 " fill-opacity="1" fill-rule="nonzero"/></g></g></svg>